<svg width="68" height="68" viewBox="0 0 68 68" fill="none" xmlns="http://www.w3.org/2000/svg">
<path d="M65.077 28.5827C65.077 28.4861 59.7854 20.5679 59.7854 20.5679L55.6482 11.5876C55.6482 11.5876 55.6482 11.5876 55.6482 11.491C55.6482 11.491 55.6482 11.491 55.552 11.491L47.374 7.8216L39.6771 0C39.6771 0 39.6771 0 39.5809 0H39.4847L29.7673 4.82815L20.0499 5.31097C20.0499 5.31097 20.0499 5.31097 19.9537 5.31097C19.9537 5.31097 19.9537 5.31097 19.8575 5.40753L13.7962 12.8429L6.09924 18.8298C6.09924 18.8298 6.09923 18.8298 6.00302 18.9264C6.00302 18.9264 6.00302 18.9264 6.00302 19.0229L5.52196 28.7758L3.21289 38.239C3.21289 38.239 3.21289 38.239 3.21289 38.3355C3.21289 38.3355 3.21289 38.3355 3.21289 38.4321L8.11968 46.4468C8.11968 46.4468 11.5833 55.5237 11.5833 55.6203C11.5833 55.6203 11.5833 55.6203 11.5833 55.7169C11.5833 55.7169 11.5833 55.7169 11.6795 55.7169L20.531 59.1931L28.1317 67.0147C28.1317 67.0147 28.1317 67.0147 28.2279 67.0147H28.3241L38.0415 62.1866C38.0415 62.1866 47.374 61.3175 47.4703 61.3175H47.5665C47.5665 61.3175 47.5665 61.3175 47.6627 61.221L54.0127 54.2684L61.0361 48.3781C61.0361 48.3781 61.0361 48.3781 61.1323 48.2815C61.1323 48.2815 61.1323 48.2815 61.1323 48.1849L62.2868 38.4321C62.2868 38.4321 64.9808 28.6792 65.077 28.5827C65.077 28.6792 65.077 28.6792 65.077 28.5827Z" fill="#602427"/>
<path d="M13.8933 12.8439L5.61914 28.6803L8.21685 46.2548L20.7244 59.0011L38.2349 61.9945L54.1098 53.9798L62.384 38.24L59.6901 20.569L47.2788 7.82267L29.7683 4.92578L13.8933 12.8439Z" fill="#D1082E"/>
<path d="M4.07862 17.6708C3.98241 17.7674 3.98242 17.7674 3.98242 17.7674L5.61802 28.5824L13.796 12.7461C13.8922 12.8427 4.07862 17.6708 4.07862 17.6708Z" fill="#7E1B2D"/>
<path d="M18.9918 3.08984C18.8956 3.08984 18.8956 3.08984 18.8956 3.18641L13.8926 12.8427L29.7675 4.92454L18.9918 3.08984Z" fill="#A00E15"/>
<path d="M58.1493 9.75157C58.053 9.65501 58.053 9.65501 58.053 9.65501L47.2773 7.82031L59.6886 20.5666L58.1493 9.75157Z" fill="#A00E15"/>
<path d="M67.3859 28.4846C67.3859 28.388 67.3859 28.388 67.3859 28.388L59.7852 20.5664L62.3829 38.2374L67.3859 28.4846Z" fill="#A00E15"/>
<path d="M63.9232 49.1499C64.0194 49.0533 64.0194 49.0533 64.0194 49.0533L62.3838 38.2383L54.2058 54.0746C54.1096 53.9781 63.9232 49.1499 63.9232 49.1499Z" fill="#7E1B2D"/>
<path d="M48.9144 63.8271C49.0106 63.8271 49.0106 63.8271 48.9144 63.8271C49.0106 63.8271 49.0106 63.8271 49.0106 63.7305L54.0136 54.0742L38.1387 61.9924C38.2349 61.9924 48.9144 63.8271 48.9144 63.8271Z" fill="#A00E15"/>
<path d="M9.85206 57.069C9.85206 57.1655 9.85206 57.1655 9.85206 57.069C9.94827 57.1655 9.94827 57.1655 9.94827 57.1655L20.724 59.0002L8.31268 46.2539C8.21647 46.2539 9.85206 57.069 9.85206 57.069Z" fill="#7E1B2D"/>
<path d="M0.615234 38.3349C0.615234 38.4315 0.615234 38.4315 0.615234 38.4315L8.21595 46.2531L5.61824 28.582C5.61824 28.6786 0.615234 38.3349 0.615234 38.3349Z" fill="#A00E15"/>
</svg>
